<svg width="8" height="14" viewBox="0 0 8 14" fill="none" xmlns="http://www.w3.org/2000/svg">
<path d="M2.41379 6.98771L7.36379 11.9377C7.4593 12.03 7.53548 12.1403 7.58789 12.2623C7.6403 12.3843 7.66788 12.5155 7.66904 12.6483C7.67019 12.7811 7.64489 12.9128 7.59461 13.0357C7.54433 13.1586 7.47007 13.2702 7.37618 13.3641C7.28229 13.458 7.17064 13.5323 7.04774 13.5825C6.92484 13.6328 6.79316 13.6581 6.66039 13.657C6.52761 13.6558 6.39639 13.6282 6.27438 13.5758C6.15238 13.5234 6.04203 13.4472 5.94979 13.3517L0.292786 7.69471C0.105315 7.50719 0 7.25288 0 6.98771C0 6.72255 0.105315 6.46824 0.292786 6.28071L5.94979 0.623714C6.13839 0.441556 6.39099 0.340762 6.65319 0.34304C6.91538 0.345319 7.1662 0.450487 7.3516 0.635896C7.53701 0.821304 7.64218 1.07212 7.64446 1.33431C7.64674 1.59651 7.54594 1.84911 7.36379 2.03771L2.41379 6.98771Z" fill="#21272A"/>
</svg>
