<svg width="47" height="47" viewBox="0 0 47 47" fill="none" xmlns="http://www.w3.org/2000/svg">
<rect width="46.1987" height="46.1987" rx="15" fill="white"/>
<path d="M27.9682 16.5H26.25C25.9627 16.5 25.6871 16.3859 25.484 16.1827C25.2808 15.9795 25.1667 15.704 25.1667 15.4167C25.1667 15.1293 25.2808 14.8538 25.484 14.6506C25.6871 14.4475 25.9627 14.3333 26.25 14.3333H30.5833C30.8706 14.3333 31.1462 14.4475 31.3494 14.6506C31.5525 14.8538 31.6667 15.1293 31.6667 15.4167V19.75C31.6667 20.0373 31.5525 20.3129 31.3494 20.516C31.1462 20.7192 30.8706 20.8333 30.5833 20.8333C30.296 20.8333 30.0205 20.7192 29.8173 20.516C29.6141 20.3129 29.5 20.0373 29.5 19.75V18.0318L24.5318 23L29.5 27.9682V26.25C29.5 25.9627 29.6141 25.6871 29.8173 25.484C30.0205 25.2808 30.296 25.1667 30.5833 25.1667C30.8706 25.1667 31.1462 25.2808 31.3494 25.484C31.5525 25.6871 31.6667 25.9627 31.6667 26.25V30.5833C31.6667 30.8707 31.5525 31.1462 31.3494 31.3494C31.1462 31.5525 30.8706 31.6667 30.5833 31.6667H26.25C25.9627 31.6667 25.6871 31.5525 25.484 31.3494C25.2808 31.1462 25.1667 30.8707 25.1667 30.5833C25.1667 30.296 25.2808 30.0205 25.484 29.8173C25.6871 29.6141 25.9627 29.5 26.25 29.5H27.9682L23 24.5318L18.0318 29.5H19.75C20.0373 29.5 20.3129 29.6141 20.516 29.8173C20.7192 30.0205 20.8333 30.296 20.8333 30.5833C20.8333 30.8707 20.7192 31.1462 20.516 31.3494C20.3129 31.5525 20.0373 31.6667 19.75 31.6667H15.4167C15.1293 31.6667 14.8538 31.5525 14.6506 31.3494C14.4475 31.1462 14.3333 30.8707 14.3333 30.5833V26.25C14.3333 25.9627 14.4475 25.6871 14.6506 25.484C14.8538 25.2808 15.1293 25.1667 15.4167 25.1667C15.704 25.1667 15.9795 25.2808 16.1827 25.484C16.3859 25.6871 16.5 25.9627 16.5 26.25V27.9682L21.4682 23L16.5 18.0318V19.75C16.5 20.0373 16.3859 20.3129 16.1827 20.516C15.9795 20.7192 15.704 20.8333 15.4167 20.8333C15.1293 20.8333 14.8538 20.7192 14.6506 20.516C14.4475 20.3129 14.3333 20.0373 14.3333 19.75V15.4167C14.3333 15.1293 14.4475 14.8538 14.6506 14.6506C14.8538 14.4475 15.1293 14.3333 15.4167 14.3333H19.75C20.0373 14.3333 20.3129 14.4475 20.516 14.6506C20.7192 14.8538 20.8333 15.1293 20.8333 15.4167C20.8333 15.704 20.7192 15.9795 20.516 16.1827C20.3129 16.3859 20.0373 16.5 19.75 16.5H18.0318L23 21.4682L27.9682 16.5Z" fill="#21272A"/>
</svg>
