<svg width="30" height="39" viewBox="0 0 30 39" fill="none" xmlns="http://www.w3.org/2000/svg">
<path d="M8.27441 1.90005C8.27441 3.70967 8.60778 5.54048 8.61839 7.3654C8.6435 11.6845 9.07702 15.975 9.07702 20.2962C9.07702 24.0247 9.07702 27.7532 9.07702 31.4817C9.07702 32.5025 9.30633 33.4649 9.30633 34.4628C9.30633 35.3636 9.63275 36.2178 9.19168 37.1" stroke="#FF5858" stroke-width="3" stroke-linecap="round"/>
<path d="M7.12768 4.19319C7.21098 3.85997 10.0104 4.07697 10.2999 4.0849C11.8132 4.12636 13.2631 4.53009 14.7206 4.90661C16.5232 5.37229 18.3494 5.78965 20.0585 6.54367C23.7707 8.18139 27.4591 10.9334 27.4221 15.3405C27.4018 17.7523 25.926 19.9928 24.4792 21.8059C21.5185 25.5161 17.8979 28.1322 13.4338 29.7555C11.7203 30.3786 9.99719 30.972 8.2424 31.469C7.03038 31.8122 5.75532 31.9789 4.56699 32.399C3.27451 32.8559 3 34.0154 3 35.2654" stroke="black" stroke-width="5" stroke-linecap="round"/>
</svg>
