<svg width="40" height="47" viewBox="0 0 40 47" fill="none" xmlns="http://www.w3.org/2000/svg">
<path fill-rule="evenodd" clip-rule="evenodd" d="M40 47C39.0588 45.6154 38.5882 42.3846 32 41C32 41 40 41 40 41C40 41 40 47 40 47Z" fill="#697077"/>
<path d="M11 41C6.58172 41 3 37.4183 3 33L3 14C3 9.58172 6.58172 6 11 6L40 6L40 41L11 41Z" fill="#697077"/>
<path d="M23.4299 19.4657C24.5343 19.4464 25.4139 18.5355 25.3946 17.4311C25.3754 16.3267 24.4644 15.447 23.36 15.4663C22.2556 15.4856 21.376 16.3965 21.3953 17.5009C21.4145 18.6053 22.3255 19.485 23.4299 19.4657Z" stroke="white" stroke-width="2" stroke-linecap="round" stroke-linejoin="round"/>
<path d="M23.4299 19.4657C24.5343 19.4464 25.4139 18.5355 25.3946 17.4311C25.3754 16.3267 24.4644 15.447 23.36 15.4663C22.2556 15.4856 21.376 16.3965 21.3953 17.5009C21.4145 18.6053 22.3255 19.485 23.4299 19.4657Z" stroke="white" stroke-width="2" stroke-linecap="round" stroke-linejoin="round"/>
<path fill-rule="evenodd" clip-rule="evenodd" d="M12.3966 17.658C12.387 17.1058 12.8268 16.6503 13.379 16.6407L21.3778 16.5011C21.93 16.4914 22.3854 16.9313 22.3951 17.4835C22.4047 18.0357 21.9649 18.4911 21.4127 18.5008L13.4139 18.6404C12.8617 18.65 12.4062 18.2102 12.3966 17.658Z" fill="white"/>
<path fill-rule="evenodd" clip-rule="evenodd" d="M12.3966 17.658C12.387 17.1058 12.8268 16.6503 13.379 16.6407L21.3778 16.5011C21.93 16.4914 22.3854 16.9313 22.3951 17.4835C22.4047 18.0357 21.9649 18.4911 21.4127 18.5008L13.4139 18.6404C12.8617 18.65 12.4062 18.2102 12.3966 17.658Z" fill="white"/>
<path fill-rule="evenodd" clip-rule="evenodd" d="M24.3948 17.4486C24.3851 16.8964 24.825 16.4409 25.3772 16.4313L29.3766 16.3615C29.9288 16.3518 30.3842 16.7916 30.3939 17.3438C30.4035 17.896 29.9637 18.3515 29.4115 18.3611L25.4121 18.431C24.8599 18.4406 24.4044 18.0008 24.3948 17.4486Z" fill="white"/>
<path fill-rule="evenodd" clip-rule="evenodd" d="M24.3948 17.4486C24.3851 16.8964 24.825 16.4409 25.3772 16.4313L29.3766 16.3615C29.9288 16.3518 30.3842 16.7916 30.3939 17.3438C30.4035 17.896 29.9637 18.3515 29.4115 18.3611L25.4121 18.431C24.8599 18.4406 24.4044 18.0008 24.3948 17.4486Z" fill="white"/>
<path d="M17.5354 25.5695C18.6398 25.5502 19.5195 24.6393 19.5002 23.5349C19.481 22.4305 18.57 21.5508 17.4656 21.5701C16.3612 21.5894 15.4816 22.5003 15.5008 23.6047C15.5201 24.7091 16.431 25.5888 17.5354 25.5695Z" stroke="white" stroke-width="2" stroke-linecap="round" stroke-linejoin="round"/>
<path d="M17.5354 25.5695C18.6398 25.5502 19.5195 24.6393 19.5002 23.5349C19.481 22.4305 18.57 21.5508 17.4656 21.5701C16.3612 21.5894 15.4816 22.5003 15.5008 23.6047C15.5201 24.7091 16.431 25.5888 17.5354 25.5695Z" stroke="white" stroke-width="2" stroke-linecap="round" stroke-linejoin="round"/>
<path fill-rule="evenodd" clip-rule="evenodd" d="M12.5013 23.6571C12.4917 23.1049 12.9315 22.6494 13.4837 22.6398L15.4834 22.6049C16.0356 22.5952 16.4911 23.0351 16.5007 23.5873C16.5104 24.1395 16.0705 24.5949 15.5183 24.6046L13.5186 24.6395C12.9664 24.6491 12.511 24.2093 12.5013 23.6571Z" fill="white"/>
<path fill-rule="evenodd" clip-rule="evenodd" d="M12.5013 23.6571C12.4917 23.1049 12.9315 22.6494 13.4837 22.6398L15.4834 22.6049C16.0356 22.5952 16.4911 23.0351 16.5007 23.5873C16.5104 24.1395 16.0705 24.5949 15.5183 24.6046L13.5186 24.6395C12.9664 24.6491 12.511 24.2093 12.5013 23.6571Z" fill="white"/>
<path fill-rule="evenodd" clip-rule="evenodd" d="M18.5004 23.5524C18.4907 23.0002 18.9306 22.5447 19.4828 22.5351L29.4812 22.3605C30.0334 22.3509 30.4889 22.7907 30.4985 23.3429C30.5082 23.8951 30.0683 24.3506 29.5161 24.3602L19.5177 24.5347C18.9655 24.5444 18.51 24.1046 18.5004 23.5524Z" fill="white"/>
<path fill-rule="evenodd" clip-rule="evenodd" d="M18.5004 23.5524C18.4907 23.0002 18.9306 22.5447 19.4828 22.5351L29.4812 22.3605C30.0334 22.3509 30.4889 22.7907 30.4985 23.3429C30.5082 23.8951 30.0683 24.3506 29.5161 24.3602L19.5177 24.5347C18.9655 24.5444 18.51 24.1046 18.5004 23.5524Z" fill="white"/>
<path d="M26.6388 31.4115C27.7432 31.3922 28.6229 30.4813 28.6036 29.3769C28.5844 28.2725 27.6734 27.3929 26.569 27.4121C25.4646 27.4314 24.585 28.3423 24.6042 29.4467C24.6235 30.5511 25.5344 31.4308 26.6388 31.4115Z" stroke="white" stroke-width="2" stroke-linecap="round" stroke-linejoin="round"/>
<path d="M26.6388 31.4115C27.7432 31.3922 28.6229 30.4813 28.6036 29.3769C28.5844 28.2725 27.6734 27.3929 26.569 27.4121C25.4646 27.4314 24.585 28.3423 24.6042 29.4467C24.6235 30.5511 25.5344 31.4308 26.6388 31.4115Z" stroke="white" stroke-width="2" stroke-linecap="round" stroke-linejoin="round"/>
<path fill-rule="evenodd" clip-rule="evenodd" d="M12.6061 29.6562C12.5964 29.104 13.0363 28.6485 13.5885 28.6389L24.5868 28.4469C25.139 28.4372 25.5945 28.8771 25.6041 29.4293C25.6137 29.9815 25.1739 30.4369 24.6217 30.4466L13.6234 30.6386C13.0712 30.6482 12.6157 30.2084 12.6061 29.6562Z" fill="white"/>
<path fill-rule="evenodd" clip-rule="evenodd" d="M12.6061 29.6562C12.5964 29.104 13.0363 28.6485 13.5885 28.6389L24.5868 28.4469C25.139 28.4372 25.5945 28.8771 25.6041 29.4293C25.6137 29.9815 25.1739 30.4369 24.6217 30.4466L13.6234 30.6386C13.0712 30.6482 12.6157 30.2084 12.6061 29.6562Z" fill="white"/>
<path fill-rule="evenodd" clip-rule="evenodd" d="M27.6038 29.3944C27.5941 28.8422 28.034 28.3867 28.5862 28.3771L29.586 28.3596C30.1382 28.35 30.5937 28.7898 30.6033 29.342C30.6129 29.8942 30.1731 30.3497 29.6209 30.3593L28.6211 30.3768C28.0689 30.3864 27.6134 29.9466 27.6038 29.3944Z" fill="white"/>
<path fill-rule="evenodd" clip-rule="evenodd" d="M27.6038 29.3944C27.5941 28.8422 28.034 28.3867 28.5862 28.3771L29.586 28.3596C30.1382 28.35 30.5937 28.7898 30.6033 29.342C30.6129 29.8942 30.1731 30.3497 29.6209 30.3593L28.6211 30.3768C28.0689 30.3864 27.6134 29.9466 27.6038 29.3944Z" fill="white"/>
<path fill-rule="evenodd" clip-rule="evenodd" d="M40 0C39.0588 1.38462 38.5882 4.61538 32 6C32 6 40 6 40 6C40 6 40 0 40 0Z" fill="#697077"/>
</svg>
