<?xml version="1.0" standalone="no"?><!DOCTYPE svg PUBLIC "-//W3C//DTD SVG 1.1//EN" "http://www.w3.org/Graphics/SVG/1.1/DTD/svg11.dtd"><svg t="1741137365322" class="icon" viewBox="0 0 1024 1024" version="1.1" xmlns="http://www.w3.org/2000/svg" p-id="3582" xmlns:xlink="http://www.w3.org/1999/xlink" width="256" height="256"><path d="M786.74 333.425L608.173 512 786.74 690.575c26.563 26.563 26.563 69.612 0 96.174-13.27 13.271-30.669 19.917-48.066 19.917-17.408 0-34.806-6.635-48.077-19.917L512 608.164 333.414 786.749c-13.27 13.271-30.668 19.917-48.076 19.917-17.398 0-34.786-6.635-48.067-19.917-26.563-26.552-26.563-69.6 0-96.174L415.826 512 237.26 333.425c-26.563-26.563-26.563-69.612 0-96.174 26.552-26.543 69.58-26.543 96.143 0L512 415.836l178.586-178.585c26.562-26.543 69.59-26.543 96.143 0 26.573 26.562 26.573 69.611 0.01 96.174z" p-id="3583"></path></svg>