<svg width="30" height="39" viewBox="0 0 30 39" fill="none" xmlns="http://www.w3.org/2000/svg">
<path d="M8.27441 2C8.27441 3.80962 8.60778 5.64043 8.61839 7.46535C8.6435 11.7845 9.07702 16.0749 9.07702 20.3962C9.07702 24.1247 9.07702 27.8532 9.07702 31.5817C9.07702 32.6024 9.30633 33.5648 9.30633 34.5628C9.30633 35.4635 9.63275 36.3178 9.19168 37.1999" stroke="#FF5858" stroke-width="3" stroke-linecap="round"/>
<path d="M7.12768 4.29314C7.21098 3.95992 10.0104 4.17692 10.2999 4.18485C11.8132 4.22631 13.2631 4.63004 14.7206 5.00657C16.5232 5.47224 18.3494 5.8896 20.0585 6.64362C23.7707 8.28134 27.4591 11.0333 27.4221 15.4404C27.4018 17.8523 25.926 20.0928 24.4792 21.9058C21.5185 25.6161 17.8979 28.2321 13.4338 29.8554C11.7203 30.4785 9.99719 31.072 8.2424 31.5689C7.03038 31.9122 5.75532 32.0788 4.56699 32.4989C3.27451 32.9559 3 34.1153 3 35.3654" stroke="black" stroke-width="5" stroke-linecap="round"/>
</svg>
