<svg width="47" height="47" viewBox="0 0 47 47" fill="none" xmlns="http://www.w3.org/2000/svg">
<rect width="46.1987" height="46.1987" rx="15" fill="white"/>
<path d="M19.75 14.3333V13.25C19.75 12.9627 19.8641 12.6871 20.0673 12.484C20.2705 12.2808 20.546 12.1667 20.8333 12.1667H25.1667C25.454 12.1667 25.7295 12.2808 25.9327 12.484C26.1359 12.6871 26.25 12.9627 26.25 13.25V14.3333H30.5833C31.158 14.3333 31.7091 14.5616 32.1154 14.9679C32.5217 15.3743 32.75 15.9254 32.75 16.5V17.5833C32.75 18.158 32.5217 18.7091 32.1154 19.1154C31.7091 19.5217 31.158 19.75 30.5833 19.75H30.4393L29.7026 30.8C29.6476 31.6226 29.2821 32.3935 28.6801 32.9567C28.0781 33.5199 27.2846 33.8332 26.4602 33.8333H19.5615C18.7378 33.8333 17.9449 33.5205 17.343 32.9583C16.741 32.396 16.3751 31.6261 16.3191 30.8043L15.5651 19.75H15.4167C14.842 19.75 14.2909 19.5217 13.8846 19.1154C13.4783 18.7091 13.25 18.158 13.25 17.5833V16.5C13.25 15.9254 13.4783 15.3743 13.8846 14.9679C14.2909 14.5616 14.842 14.3333 15.4167 14.3333H19.75ZM30.5833 16.5H15.4167V17.5833H30.5833V16.5ZM17.7361 19.75L18.4803 30.657C18.499 30.931 18.621 31.1877 18.8218 31.3751C19.0225 31.5625 19.2869 31.6668 19.5615 31.6667H26.4602C26.7351 31.6667 26.9998 31.5622 27.2006 31.3743C27.4014 31.1864 27.5232 30.9292 27.5413 30.6548L28.2672 19.75H17.7372H17.7361ZM20.8333 20.8333C21.1207 20.8333 21.3962 20.9475 21.5994 21.1506C21.8025 21.3538 21.9167 21.6293 21.9167 21.9167V29.5C21.9167 29.7873 21.8025 30.0629 21.5994 30.266C21.3962 30.4692 21.1207 30.5833 20.8333 30.5833C20.546 30.5833 20.2705 30.4692 20.0673 30.266C19.8641 30.0629 19.75 29.7873 19.75 29.5V21.9167C19.75 21.6293 19.8641 21.3538 20.0673 21.1506C20.2705 20.9475 20.546 20.8333 20.8333 20.8333ZM25.1667 20.8333C25.454 20.8333 25.7295 20.9475 25.9327 21.1506C26.1359 21.3538 26.25 21.6293 26.25 21.9167V29.5C26.25 29.7873 26.1359 30.0629 25.9327 30.266C25.7295 30.4692 25.454 30.5833 25.1667 30.5833C24.8793 30.5833 24.6038 30.4692 24.4006 30.266C24.1975 30.0629 24.0833 29.7873 24.0833 29.5V21.9167C24.0833 21.6293 24.1975 21.3538 24.4006 21.1506C24.6038 20.9475 24.8793 20.8333 25.1667 20.8333V20.8333Z" fill="#21272A"/>
</svg>
