<svg width="14" height="16" viewBox="0 0 14 16" fill="none" xmlns="http://www.w3.org/2000/svg">
<path d="M10.5 9.75C10.5 7.49486 8.8024 5.66667 6.70833 5.66667C4.61425 5.66667 2.91667 7.49486 2.91667 9.75" stroke="#21272A" stroke-width="1.5" stroke-linecap="round" stroke-linejoin="round"/>
<path fill-rule="evenodd" clip-rule="evenodd" d="M9.75 9.45833C9.75 8.88302 10.2164 8.41667 10.7917 8.41667C11.367 8.41667 11.8333 8.88302 11.8333 9.45833C11.8333 10.0336 11.367 10.5 10.7917 10.5C10.2164 10.5 9.75 10.0336 9.75 9.45833ZM10.7917 9.91667C11.0448 9.91667 11.25 9.71147 11.25 9.45833C11.25 9.2052 11.0448 9 10.7917 9C10.5385 9 10.3333 9.2052 10.3333 9.45833C10.3333 9.71147 10.5385 9.91667 10.7917 9.91667Z" fill="#21272A"/>
</svg>
