<svg width="8" height="14" viewBox="0 0 8 14" fill="none" xmlns="http://www.w3.org/2000/svg">
<path d="M5.58618 7L0.636181 2.05C0.454023 1.8614 0.353228 1.60879 0.355507 1.3466C0.357785 1.0844 0.462954 0.833587 0.648362 0.648179C0.83377 0.462771 1.08458 0.357602 1.34678 0.355323C1.60898 0.353045 1.86158 0.453839 2.05018 0.635998L7.70718 6.293C7.89465 6.48053 7.99997 6.73483 7.99997 7C7.99997 7.26516 7.89465 7.51947 7.70718 7.707L2.05018 13.364C1.86158 13.5462 1.60898 13.6469 1.34678 13.6447C1.08458 13.6424 0.83377 13.5372 0.648362 13.3518C0.462954 13.1664 0.357785 12.9156 0.355507 12.6534C0.353228 12.3912 0.454023 12.1386 0.636181 11.95L5.58618 7Z" fill="#21272A"/>
</svg>
